<svg xmlns="http://www.w3.org/2000/svg" viewBox="0 0 512 512" width="512" height="512">
  <defs>
    <linearGradient id="g" x1="0" y1="0" x2="1" y2="1">
      <stop offset="0%" stop-color="#059669"/>
      <stop offset="100%" stop-color="#10B981"/>
    </linearGradient>
  </defs>
  <rect x="32" y="32" width="448" height="448" rx="64" ry="64" fill="url(#g)"/>
  <!-- Building icon -->
  <g fill="#ffffff">
    <!-- Main building body -->
    <rect x="176" y="160" width="160" height="224" rx="12"/>
    <!-- Door -->
    <rect x="240" y="320" width="32" height="64" rx="6"/>
    <!-- Windows -->
    <rect x="200" y="192" width="24" height="24" rx="4"/>
    <rect x="240" y="192" width="24" height="24" rx="4"/>
    <rect x="280" y="192" width="24" height="24" rx="4"/>
    <rect x="200" y="232" width="24" height="24" rx="4"/>
    <rect x="240" y="232" width="24" height="24" rx="4"/>
    <rect x="280" y="232" width="24" height="24" rx="4"/>
    <rect x="200" y="272" width="24" height="24" rx="4"/>
    <rect x="280" y="272" width="24" height="24" rx="4"/>
    <!-- Roof bar -->
    <rect x="160" y="144" width="192" height="12" rx="6"/>
  </g>
</svg>

